<?xml version="1.0" standalone="no"?>
<!DOCTYPE svg PUBLIC "-//W3C//DTD SVG 20010904//EN"
 "http://www.w3.org/TR/2001/REC-SVG-20010904/DTD/svg10.dtd">
<svg version="1.0" xmlns="http://www.w3.org/2000/svg"
 width="300.000000pt" height="300.000000pt" viewBox="0 0 300.000000 300.000000"
 preserveAspectRatio="xMidYMid meet">
<metadata>
Created by potrace 1.10, written by Peter Selinger 2001-2011
</metadata>
<g transform="translate(0.000000,300.000000) scale(0.100000,-0.100000)"
fill="#ffffff" stroke="none">
<path d="M0 1500 l0 -1500 1500 0 1500 0 0 1500 0 1500 -1500 0 -1500 0 0
-1500z m1415 1095 c274 -36 491 -99 820 -236 126 -53 541 -254 480 -233 -11 4
-83 31 -160 60 -267 100 -665 213 -900 256 -161 29 -456 31 -590 5 -115 -23
-186 -44 -255 -74 -166 -73 -327 -274 -404 -505 -75 -224 -87 -555 -31 -878
l6 -35 -16 35 c-28 60 -72 252 -85 368 -19 173 -9 424 23 543 110 417 321 623
711 694 97 18 269 18 401 0z m90 -635 c160 -61 507 -192 773 -292 265 -100
479 -185 475 -188 -5 -4 -368 -116 -808 -250 -440 -133 -847 -257 -905 -275
-58 -18 -106 -31 -108 -30 -2 2 0 13 3 26 6 22 65 42 778 258 425 129 801 244
836 256 l65 21 -95 37 c-94 36 -920 347 -1186 447 -128 48 -143 56 -143 77 0
13 6 23 13 23 6 0 143 -50 302 -110z m-775 -36 c-76 -270 -117 -544 -106 -699
13 -169 68 -288 190 -411 99 -99 181 -142 346 -181 111 -27 125 -28 380 -28
365 1 505 23 939 150 123 37 225 64 227 62 7 -7 -323 -139 -481 -192 -256 -86
-668 -157 -910 -158 -149 -1 -246 20 -372 78 -216 100 -321 213 -385 415 -20
67 -23 94 -23 250 0 143 5 195 23 284 27 130 68 261 123 393 79 189 95 201 49
37z m1100 -193 c338 -128 619 -235 624 -238 8 -5 -307 -103 -1229 -383 -132
-40 -246 -75 -254 -78 -11 -4 -12 3 -7 34 7 38 42 191 52 227 5 16 26 17 260
17 l254 0 0 85 0 85 -235 0 c-129 0 -235 3 -235 6 0 3 5 25 11 50 l11 44 224
0 224 0 0 90 0 90 -203 2 -202 3 24 103 c22 95 26 103 45 99 12 -2 298 -109
636 -236z"/>
</g>
</svg>
