<?xml version="1.0" standalone="no"?>
<!DOCTYPE svg PUBLIC "-//W3C//DTD SVG 20010904//EN"
 "http://www.w3.org/TR/2001/REC-SVG-20010904/DTD/svg10.dtd">
<svg version="1.0" xmlns="http://www.w3.org/2000/svg"
 width="300.000000pt" height="300.000000pt" viewBox="0 0 300.000000 300.000000"
 preserveAspectRatio="xMidYMid meet">
<metadata>
Created by potrace 1.10, written by Peter Selinger 2001-2011
</metadata>
<g transform="translate(0.000000,300.000000) scale(0.100000,-0.100000)"
fill="#dd2222" stroke="none">
<path d="M1036 2600 c-88 -14 -198 -46 -270 -79 -234 -106 -375 -294 -464
-620 -25 -91 -27 -109 -27 -326 0 -175 5 -252 18 -320 17 -91 77 -298 84 -291
2 2 -3 44 -12 92 -22 117 -31 423 -16 546 33 281 144 520 314 674 95 86 203
131 402 170 127 25 411 25 560 0 228 -38 621 -147 903 -250 81 -30 156 -57
167 -60 11 -4 -43 25 -120 65 -382 196 -776 336 -1081 385 -119 19 -376 26
-458 14z"/>
<path d="M1190 2047 c0 -21 47 -41 608 -251 811 -306 817 -308 801 -316 -8 -4
-384 -119 -836 -256 -760 -230 -822 -251 -828 -273 -3 -13 -5 -24 -3 -26 2 -1
102 28 223 65 121 37 528 161 905 275 377 115 688 211 692 215 8 6 -1527 590
-1550 590 -7 0 -12 -10 -12 -23z"/>
<path d="M737 2013 c-26 -49 -88 -204 -119 -293 -83 -246 -112 -551 -68 -726
23 -91 75 -202 121 -257 78 -95 270 -207 424 -248 210 -57 747 8 1130 136 155
52 489 185 481 192 -2 2 -104 -26 -227 -62 -437 -127 -574 -149 -939 -150
-255 0 -269 1 -380 28 -150 36 -243 82 -330 164 -123 116 -191 255 -204 418
-13 158 28 439 104 709 31 111 33 141 7 89z"/>
<path d="M1149 1868 l-24 -103 202 -3 203 -2 0 -90 0 -90 -224 0 -224 0 -11
-44 c-6 -25 -11 -47 -11 -50 0 -3 106 -6 235 -6 l235 0 0 -85 0 -85 -255 0
-254 0 -10 -37 c-24 -96 -53 -234 -50 -238 3 -2 340 98 751 223 411 125 744
230 740 234 -9 8 -1229 469 -1258 475 -19 4 -23 -4 -45 -99z"/>
</g>
</svg>
